<?xml version="1.0" encoding="UTF-8"?>
<svg width="80px" height="80px" viewBox="0 0 80 80" version="1.1" xmlns="http://www.w3.org/2000/svg" xmlns:xlink="http://www.w3.org/1999/xlink">
    <!-- Generator: Sketch 42 (36781) - http://www.bohemiancoding.com/sketch -->
    <title>photo_place</title>
    <desc>Created with Sketch.</desc>
    <defs>
        <ellipse id="path-1" cx="40" cy="39.6887858" rx="40" ry="39.6887858"></ellipse>
    </defs>
    <g id="Symbols" stroke="none" stroke-width="1" fill="none" fill-rule="evenodd">
        <g id="photo_place">
            <g id="human">
                <mask id="mask-2" fill="white">
                    <use xlink:href="#path-1"></use>
                </mask>
                <use id="Mask" fill="#5EC6E6" xlink:href="#path-1"></use>
                <path d="M17.8571429,59.1767826 C17.8571429,46.9459009 27.7681488,37.0308123 40,37.0308123 C52.2291623,37.0308123 62.1428571,46.9468988 62.1428571,59.1767826 L62.1428571,99.2857143 L17.8571429,99.2857143 L17.8571429,59.1767826 Z M40,35.2521008 C32.6625026,35.2521008 26.7142857,29.2794289 26.7142857,21.9117647 C26.7142857,14.5441005 32.6625026,8.57142857 40,8.57142857 C47.3374974,8.57142857 53.2857143,14.5441005 53.2857143,21.9117647 C53.2857143,29.2794289 47.3374974,35.2521008 40,35.2521008 Z" id="Combined-Shape" fill="#FFFFFF" opacity="0.2" mask="url(#mask-2)"></path>
            </g>
            <path d="M38.5714286,38.5714286 L30.0866306,38.5714286 C29.6397687,38.5714286 29.2857143,38.9277533 29.2857143,39.3673021 L29.2857143,40.6326979 C29.2857143,41.0782296 29.6442967,41.4285714 30.0866306,41.4285714 L38.5714286,41.4285714 L38.5714286,49.9133694 C38.5714286,50.3602313 38.9277533,50.7142857 39.3673021,50.7142857 L40.6326979,50.7142857 C41.0782296,50.7142857 41.4285714,50.3557033 41.4285714,49.9133694 L41.4285714,41.4285714 L49.9133694,41.4285714 C50.3602313,41.4285714 50.7142857,41.0722467 50.7142857,40.6326979 L50.7142857,39.3673021 C50.7142857,38.9217704 50.3557033,38.5714286 49.9133694,38.5714286 L41.4285714,38.5714286 L41.4285714,30.0866306 C41.4285714,29.6397687 41.0722467,29.2857143 40.6326979,29.2857143 L39.3673021,29.2857143 C38.9217704,29.2857143 38.5714286,29.6442967 38.5714286,30.0866306 L38.5714286,38.5714286 Z" id="Combined-Shape" fill="#F7F7F7"></path>
        </g>
    </g>
</svg>