<?xml version="1.0" encoding="UTF-8"?>
<svg width="11px" height="14px" viewBox="0 0 11 14" version="1.1" xmlns="http://www.w3.org/2000/svg" xmlns:xlink="http://www.w3.org/1999/xlink">
    <!-- Generator: Sketch 42 (36781) - http://www.bohemiancoding.com/sketch -->
    <title>icon_map_pin</title>
    <desc>Created with Sketch.</desc>
    <defs></defs>
    <g id="Page-1" stroke="none" stroke-width="1" fill="none" fill-rule="evenodd" stroke-linecap="round" stroke-linejoin="round">
        <g id="article_view_page" transform="translate(-162.000000, -180.000000)" stroke="#000000">
            <g id="article_content_top" transform="translate(36.000000, 78.000000)">
                <g id="icon_map_pin" transform="translate(127.000000, 103.000000)">
                    <g id="Icon">
                        <path d="M4.7755102,0 C7.41308418,0 9.55102041,2.08839031 9.55102041,4.66447959 C9.55102041,5.70942092 9.199125,6.67407398 8.60517092,7.45158673" id="Stroke-350" stroke-width="0.5"></path>
                        <path d="M6.26785714,4.66444974 C6.26785714,5.48852372 5.59958418,6.15679668 4.7755102,6.15679668 C3.95143622,6.15679668 3.28316327,5.48852372 3.28316327,4.66444974 C3.28316327,3.84037577 3.95143622,3.17210281 4.7755102,3.17210281 C5.59958418,3.17210281 6.26785714,3.84037577 6.26785714,4.66444974 L6.26785714,4.66444974 Z" id="Stroke-352" stroke-width="0.5"></path>
                        <path d="M4.7755102,12.5357143 L8.60517092,7.45158673" id="Stroke-354" stroke-width="0.5"></path>
                        <path d="M4.7755102,0 C2.13793622,0 0,2.08839031 0,4.66447959 C0,5.70942092 0.351895408,6.67407398 0.94584949,7.45158673" id="Stroke-356" stroke-width="0.5"></path>
                        <path d="M4.7755102,12.5357143 L0.94584949,7.45158673" id="Stroke-358" stroke-width="0.5"></path>
                    </g>
                </g>
            </g>
        </g>
    </g>
</svg>